<svg width="32" height="43" viewBox="0 0 32 43" fill="none" xmlns="http://www.w3.org/2000/svg">
<rect y="12" width="31" height="31" rx="10" fill="#FD7A02"/>
<path d="M15.2773 27.7109C13.806 27.4766 12.6211 26.832 11.7227 25.7773C10.8372 24.7227 10.3945 23.5182 10.3945 22.1641C10.3945 20.5365 10.9609 19.1823 12.0938 18.1016C13.2266 17.0208 14.5286 16.4805 16 16.4805C17.5495 16.4805 18.8711 17.0404 19.9648 18.1602C21.0846 19.2539 21.6445 20.5885 21.6445 22.1641C21.6445 23.5703 21.1693 24.8008 20.2188 25.8555C19.2682 26.9102 18.1159 27.5286 16.7617 27.7109V30.9531H21.7617V32.3203H16.7617V37.4375H15.2773V32.3203H10.2383V30.9531H15.2773V27.7109ZM16 18.1211C14.8542 18.1211 13.8906 18.5117 13.1094 19.293C12.3411 20.0742 11.957 21.0182 11.957 22.125C11.957 23.2448 12.3542 24.2018 13.1484 24.9961C13.9557 25.7773 14.9062 26.168 16 26.168C17.1198 26.168 18.0638 25.7643 18.832 24.957C19.6393 24.1628 20.043 23.2188 20.043 22.125C20.043 21.0052 19.6523 20.0612 18.8711 19.293C18.1029 18.5117 17.1458 18.1211 16 18.1211Z" fill="white"/>
</svg>
